<svg t="1732183275406" class="icon" viewBox="0 0 1024 1024" version="1.1" xmlns="http://www.w3.org/2000/svg" p-id="829" width="256" height="256"><path d="M141.241379 388.413793v494.344828c0 38.841379 31.77931 70.62069 70.62069 70.620689h600.275862c38.841379 0 70.62069-31.77931 70.62069-70.620689V388.413793H141.241379z" fill="#FFDB2B" p-id="830"></path><path d="M891.515586 475.206621c-56.125793-32.079448-119.966897-49.028414-184.602483-49.028414s-128.47669 16.948966-184.602482 49.028414l-0.264828 0.158896h-26.959448l-0.264828-0.158896C435.870897 441.520552 370.899862 423.724138 306.882207 423.724138c-61.47531 0-120.161103 15.713103-174.397793 46.715586L123.586207 475.524414v15.042207c-0.088276 54.660414-0.247172 156.389517 109.356138 168.253793 21.521655 2.330483 42.054621 3.495724 61.069241 3.495724 164.493241 0 202.71669-87.393103 208.666483-151.640276h11.758345c5.949793 64.229517 44.173241 151.640276 208.666483 151.640276 18.996966 0 39.547586-1.165241 61.069241-3.495724C900.413793 646.232276 900.413793 537.12331 900.413793 490.53131v-10.24l-8.898207-5.084689z" fill="#556080" p-id="831"></path><path d="M208.401655 566.201379a17.637517 17.637517 0 0 1-12.482207-30.137379l55.543173-55.543172a17.637517 17.637517 0 1 1 24.964413 24.964413l-55.543172 55.543173a17.566897 17.566897 0 0 1-12.482207 5.172965zM282.429793 603.224276a17.637517 17.637517 0 0 1-12.482207-30.137379l92.548414-92.548414a17.637517 17.637517 0 1 1 24.964414 24.964414l-92.548414 92.548413a17.602207 17.602207 0 0 1-12.482207 5.172966zM615.618207 566.201379a17.637517 17.637517 0 0 1-12.482207-30.137379l55.543172-55.543172a17.637517 17.637517 0 1 1 24.964414 24.964413l-55.543172 55.543173a17.531586 17.531586 0 0 1-12.482207 5.172965zM689.664 603.224276a17.637517 17.637517 0 0 1-12.482207-30.137379l92.548414-92.548414a17.637517 17.637517 0 1 1 24.964414 24.964414l-92.548414 92.548413a17.655172 17.655172 0 0 1-12.482207 5.172966z" fill="#8697CB" p-id="832"></path><path d="M370.988138 876.420414a17.655172 17.655172 0 0 1-14.512552-27.683311c2.665931-3.884138 66.612966-95.232 166.082207-110.203586 55.278345-8.297931 109.938759 8.492138 162.551173 50.034759a17.672828 17.672828 0 0 1-21.892414 27.718621c-44.596966-35.257379-90.094345-49.716966-135.397518-42.849104-84.497655 12.747034-141.700414 94.508138-142.283034 95.320276a17.602207 17.602207 0 0 1-14.547862 7.662345z" fill="#F29C1F" p-id="833"></path><path d="M397.488552 900.413793a17.549241 17.549241 0 0 1-10.575449-3.531034L335.448276 858.288552a17.619862 17.619862 0 1 1 21.168552-28.230621l51.464827 38.594207a17.619862 17.619862 0 0 1-10.593103 31.761655zM654.777379 848.966621a17.619862 17.619862 0 0 1-10.610758-31.761655l51.447172-38.594207a17.619862 17.619862 0 1 1 21.168552 28.23062l-51.447173 38.594207a17.478621 17.478621 0 0 1-10.557793 3.531035z" fill="#F29C1F" p-id="834"></path><path d="M718.477241 1024h-412.954482A23.04 23.04 0 0 1 282.482759 1000.96V953.37931h459.034482v47.58069c0 12.729379-10.310621 23.04-23.04 23.04z" fill="#FEC722" p-id="835"></path><path d="M105.931034 282.482759C105.931034 126.464 277.98069 0 512 0s406.068966 126.464 406.068966 282.482759H105.931034z" fill="#7F8C8D" p-id="836"></path><path d="M918.068966 388.413793H105.931034c-29.131034 0-52.965517-23.834483-52.965517-52.965517s23.834483-52.965517 52.965517-52.965517h812.137932c29.131034 0 52.965517 23.834483 52.965517 52.965517s-23.834483 52.965517-52.965517 52.965517z" fill="#5E5F62" p-id="837"></path><path d="M123.586207 282.482759h35.310345v105.931034H123.586207zM229.517241 282.482759h35.310345v105.931034h-35.310345zM335.448276 282.482759h35.310345v105.931034h-35.310345zM441.37931 282.482759h35.310345v105.931034h-35.310345zM547.310345 282.482759h35.310345v105.931034h-35.310345zM653.241379 282.482759h35.310345v105.931034h-35.310345zM759.172414 282.482759h35.310345v105.931034h-35.310345zM865.103448 282.482759h35.310345v105.931034h-35.310345z" fill="#7F8C8D" p-id="838"></path></svg>